<svg width="11" height="12" viewBox="0 0 11 12" fill="none" xmlns="http://www.w3.org/2000/svg">
<path d="M9.44806 0.5H1.8471C0.988928 0.5 0.335083 1.15385 0.335083 2.01202V9.61298C0.335083 10.4712 0.988928 11.125 1.8471 11.125H9.44806C10.3062 11.125 10.9601 10.4712 10.9601 9.61298V2.01202C10.9601 1.15385 10.3062 0.5 9.44806 0.5ZM5.64758 9C7.40479 9 8.83508 7.61058 8.83508 5.9351C8.83508 5.64904 8.79422 5.32212 8.71249 5.07692H9.61152V9.40865C9.61152 9.61298 9.44806 9.81731 9.20287 9.81731H2.0923C1.88797 9.81731 1.68364 9.65385 1.68364 9.40865V5.03606H2.62355C2.54182 5.32211 2.50095 5.60817 2.50095 5.89423C2.46008 7.61058 3.89037 9 5.64758 9ZM5.64758 7.77404C4.50335 7.77404 3.60431 6.875 3.60431 5.77164C3.60431 4.66827 4.50335 3.76923 5.64758 3.76923C6.79181 3.76923 7.69085 4.66827 7.69085 5.77164C7.69085 6.91587 6.79181 7.77404 5.64758 7.77404ZM9.57066 3.40144C9.57066 3.64663 9.36633 3.85096 9.12114 3.85096H7.97691C7.73172 3.85096 7.52739 3.64663 7.52739 3.40144V2.29808C7.52739 2.05288 7.73172 1.84856 7.97691 1.84856H9.12114C9.36633 1.84856 9.57066 2.05288 9.57066 2.29808V3.40144Z" fill="white"/>
</svg>
